<svg width="80" height="80" viewBox="0 0 80 80" fill="none" xmlns="http://www.w3.org/2000/svg">
<path d="M56.0079 78.5534L65.082 76.5581V58.4607H67.6238V76.5708L79.4049 79.1888L67.6492 19.0633L56.0079 78.5534Z" fill="url(#paint0_linear_1_14)"/>
<path d="M65.3108 17.7924H51.1023V24.3756C51.9502 24.6754 52.6649 25.2653 53.12 26.041C53.575 26.8168 53.7412 27.7285 53.5891 28.6149C53.437 29.5013 52.9765 30.3055 52.2888 30.8852C51.6012 31.4649 50.7308 31.7828 49.8314 31.7828C48.932 31.7828 48.0616 31.4649 47.3739 30.8852C46.6863 30.3055 46.2257 29.5013 46.0736 28.6149C45.9216 27.7285 46.0877 26.8168 46.5428 26.041C46.9979 25.2653 47.7126 24.6754 48.5605 24.3756V17.7924H25.6846V24.3756C26.5325 24.6754 27.2472 25.2653 27.7023 26.041C28.1574 26.8168 28.3235 27.7285 28.1714 28.6149C28.0194 29.5013 27.5588 30.3055 26.8712 30.8852C26.1835 31.4649 25.3131 31.7828 24.4137 31.7828C23.5143 31.7828 22.6439 31.4649 21.9562 30.8852C21.2686 30.3055 20.808 29.5013 20.6559 28.6149C20.5039 27.7285 20.67 26.8168 21.1251 26.041C21.5802 25.2653 22.2949 24.6754 23.1428 24.3756V17.7924H11.9336L9.53674e-07 78.7949H53.3772L65.3108 17.7924ZM30.5012 68.1194L29.9166 68.399L29.3447 68.094C15.365 60.6339 16.4961 51.4073 17.1569 48.7511C18.3262 44.0616 22.2405 40.6683 26.4725 40.6683C28.5415 40.6841 30.5288 41.4781 32.039 42.8924C33.6953 41.5117 35.7678 40.7284 37.9232 40.6683C39.7937 40.7081 41.5931 41.3926 43.0173 42.606C44.4414 43.8194 45.4029 45.4873 45.7391 47.3278C47.0863 53.123 43.782 61.6252 30.5012 68.1194Z" fill="url(#paint1_linear_1_14)"/>
<path d="M37.9359 43.2101C36.0063 43.3172 34.1893 44.153 32.8524 45.5485L31.8992 46.4381L31.035 45.4595C30.4809 44.7755 29.7848 44.22 28.9948 43.8316C28.2048 43.4432 27.3399 43.2311 26.4598 43.2101C23.3843 43.2101 20.5121 45.7519 19.6098 49.3739C18.1737 55.1056 22.0371 61.1168 29.9548 65.5395C41.3927 59.7443 44.303 52.4494 43.2609 47.9124C43.0466 46.637 42.4006 45.4741 41.4313 44.6181C40.4619 43.7621 39.2279 43.265 37.9359 43.2101Z" fill="url(#paint2_linear_1_14)"/>
<path d="M25.6846 13.9797C25.6846 10.9462 26.8896 8.03691 29.0347 5.89187C31.1797 3.74684 34.089 2.54177 37.1225 2.54177C40.1561 2.54177 43.0654 3.74684 45.2104 5.89187C47.3554 8.03691 48.5605 10.9462 48.5605 13.9797V17.7924H51.1023V13.9797C51.1023 10.2721 49.6294 6.71628 47.0077 4.09457C44.386 1.47286 40.8302 0 37.1225 0C33.4149 0 29.8591 1.47286 27.2374 4.09457C24.6157 6.71628 23.1428 10.2721 23.1428 13.9797V17.7924H25.6846V13.9797Z" fill="url(#paint3_linear_1_14)"/>
<defs>
<linearGradient id="paint0_linear_1_14" x1="56.0079" y1="19.0633" x2="79.4049" y2="19.0633" gradientUnits="userSpaceOnUse">
<stop stop-color="#E6CDFF"/>
<stop offset="1" stop-color="#1548A1"/>
</linearGradient>
<linearGradient id="paint1_linear_1_14" x1="9.53674e-07" y1="17.7924" x2="65.3108" y2="17.7924" gradientUnits="userSpaceOnUse">
<stop stop-color="#E6CDFF"/>
<stop offset="1" stop-color="#1548A1"/>
</linearGradient>
<linearGradient id="paint2_linear_1_14" x1="19.3147" y1="43.2101" x2="43.4576" y2="43.2101" gradientUnits="userSpaceOnUse">
<stop stop-color="#E6CDFF"/>
<stop offset="1" stop-color="#1548A1"/>
</linearGradient>
<linearGradient id="paint3_linear_1_14" x1="23.1428" y1="0" x2="51.1023" y2="0" gradientUnits="userSpaceOnUse">
<stop stop-color="#E6CDFF"/>
<stop offset="1" stop-color="#1548A1"/>
</linearGradient>
</defs>
</svg>
